<?xml version="1.0" encoding="UTF-8"?>
<svg width="19px" height="20px" viewBox="0 0 19 20" version="1.1" xmlns="http://www.w3.org/2000/svg" xmlns:xlink="http://www.w3.org/1999/xlink">
    <!-- Generator: Sketch 61.2 (89653) - https://sketch.com -->
    <title>Icons / instagram</title>
    <desc>Created with Sketch.</desc>
    <g id="Page-1" stroke="none" stroke-width="1" fill="none" fill-rule="evenodd">
        <g id="HOME---Mobile" transform="translate(-113.000000, -2271.000000)" fill="#FFFFFF" fill-rule="nonzero">
            <g id="Footer-Group" transform="translate(0.000000, 2115.000000)">
                <g id="social-media-icons" transform="translate(24.000000, 156.000000)">
                    <g id="Icons-/-instagram" transform="translate(89.000000, 0.000000)">
                        <g id="instagram-brands" fill="none" transform="translate(-0.000000, 0.000000)">
                            <path d="M9.43691864,4.89977728 C6.77060134,4.89977728 4.61993974,7.18485523 4.61993974,10.0178174 C4.61993974,12.8507795 6.77060134,15.1358575 9.43691864,15.1358575 C12.1032359,15.1358575 14.2538976,12.8507795 14.2538976,10.0178174 C14.2538976,7.18485523 12.1032359,4.89977728 9.43691864,4.89977728 Z M9.43691864,13.3452116 C7.71387397,13.3452116 6.3052535,11.8530067 6.3052535,10.0178174 C6.3052535,8.18262806 7.70968165,6.69042316 9.43691864,6.69042316 C11.1641556,6.69042316 12.5685838,8.18262806 12.5685838,10.0178174 C12.5685838,11.8530067 11.1599633,13.3452116 9.43691864,13.3452116 L9.43691864,13.3452116 Z M15.5744792,4.69042316 C15.5744792,5.35412027 15.0714005,5.88418708 14.4509367,5.88418708 C13.8262806,5.88418708 13.3273942,5.34966592 13.3273942,4.69042316 C13.3273942,4.0311804 13.8304729,3.49665924 14.4509367,3.49665924 C15.0714005,3.49665924 15.5744792,4.0311804 15.5744792,4.69042316 Z M18.7648369,5.90200445 C18.6935674,4.30289532 18.3497969,2.88641425 17.247216,1.71937639 C16.1488275,0.55233853 14.8156688,0.187082405 13.3106249,0.106904232 C11.7594655,0.013363029 7.11017948,0.013363029 5.55902004,0.106904232 C4.05816848,0.182628062 2.72500983,0.547884187 1.62242893,1.71492205 C0.519848028,2.88195991 0.180269881,4.29844098 0.10480807,5.89755011 C0.0167692912,7.54565702 0.0167692912,12.4855234 0.10480807,14.1336303 C0.176077558,15.7327394 0.519848028,17.1492205 1.62242893,18.3162584 C2.72500983,19.4832962 4.05397616,19.8485523 5.55902004,19.9287305 C7.11017948,20.0222717 11.7594655,20.0222717 13.3106249,19.9287305 C14.8156688,19.8530067 16.1488275,19.4877506 17.247216,18.3162584 C18.3456046,17.1492205 18.6893751,15.7327394 18.7648369,14.1336303 C18.8528757,12.4855234 18.8528757,7.55011136 18.7648369,5.90200445 Z M16.7609066,15.9020045 C16.4339054,16.7750557 15.8008647,17.4476615 14.9749771,17.7995546 C13.7382418,18.3207127 10.8036159,18.2004454 9.43691864,18.2004454 C8.07022141,18.2004454 5.13140312,18.3162584 3.89886021,17.7995546 C3.07716494,17.4521158 2.4441242,16.77951 2.1129307,15.9020045 C1.62242893,14.5879733 1.73562164,11.4699332 1.73562164,10.0178174 C1.73562164,8.56570156 1.62662125,5.44320713 2.1129307,4.13363029 C2.43993187,3.26057906 3.07297262,2.58797327 3.89886021,2.23608018 C5.13559544,1.71492205 8.07022141,1.83518931 9.43691864,1.83518931 C10.8036159,1.83518931 13.7424342,1.71937639 14.9749771,2.23608018 C15.7966723,2.58351893 16.4297131,3.25612472 16.7609066,4.13363029 C17.2514084,5.44766147 17.1382156,8.56570156 17.1382156,10.0178174 C17.1382156,11.4699332 17.2514084,14.5924276 16.7609066,15.9020045 Z" id="Shape" fill="#000000"></path>
                        </g>
                    </g>
                </g>
            </g>
        </g>
    </g>
</svg>