<?xml version="1.0" encoding="UTF-8"?>
<svg width="24px" height="20px" viewBox="0 0 24 20" version="1.1" xmlns="http://www.w3.org/2000/svg" xmlns:xlink="http://www.w3.org/1999/xlink">
    <!-- Generator: Sketch 61.2 (89653) - https://sketch.com -->
    <title>Icons / twitter</title>
    <desc>Created with Sketch.</desc>
    <g id="Page-1" stroke="none" stroke-width="1" fill="none" fill-rule="evenodd">
        <g id="HOME---Mobile" transform="translate(-166.000000, -2271.000000)" fill="#FFFFFF" fill-rule="nonzero">
            <g id="Footer-Group" transform="translate(0.000000, 2115.000000)">
                <g id="social-media-icons" transform="translate(24.000000, 156.000000)">
                    <g id="Icons-/-twitter" transform="translate(142.000000, 0.000000)">
                        <g id="twitter-brands" fill="none" transform="translate(-0.000000, 0.000000)">
                            <path d="M21.3726737,4.98634615 C21.3877947,5.205 21.3877947,5.42370192 21.3877947,5.64235577 C21.3877947,12.3115865 16.4754342,19.9961058 7.49706886,19.9961058 C4.73100186,19.9961058 2.16146092,19.1682692 0,17.7313942 C0.393005583,17.7782212 0.770843672,17.7938462 1.17897022,17.7938462 C3.46130583,17.7938462 5.5623294,16.9973077 7.24010546,15.6384615 C5.09376551,15.5915865 3.29506824,14.1390385 2.67534119,12.1398077 C2.97766749,12.1866346 3.27994727,12.2178846 3.59739454,12.2178846 C4.0357165,12.2178846 4.47408499,12.1553846 4.88216501,12.0461058 C2.64514578,11.5775 0.967323201,9.54706731 0.967323201,7.09490385 L0.967323201,7.03245192 C1.61724566,7.40730769 2.37306141,7.64158654 3.1741005,7.67278846 C1.85908809,6.766875 0.997565136,5.220625 0.997565136,3.47129808 C0.997565136,2.53418269 1.23936104,1.67514423 1.66260856,0.925432692 C4.06591191,3.98673077 7.67842742,5.98591346 11.7292184,6.20461538 C11.65366,5.82975962 11.6082971,5.43932692 11.6082971,5.04884615 C11.6082971,2.26865385 13.784879,0.00394230769 16.4904622,0.00394230769 C17.8961538,0.00394230769 19.1658033,0.613076923 20.0576148,1.59706731 C21.1609801,1.37841346 22.2190292,0.956682692 23.1562035,0.378798077 C22.7933933,1.55024038 22.0225496,2.53423077 21.0098635,3.15894231 C21.9923542,3.04966346 22.944603,2.76846154 23.8212469,2.37802885 C23.1562965,3.37759615 22.3249225,4.26783654 21.3726737,4.98634615 Z" id="Path" fill="#000000"></path>
                        </g>
                    </g>
                </g>
            </g>
        </g>
    </g>
</svg>