<?xml version="1.0" encoding="UTF-8"?>
<svg width="15px" height="20px" viewBox="0 0 15 20" version="1.1" xmlns="http://www.w3.org/2000/svg" xmlns:xlink="http://www.w3.org/1999/xlink">
    <!-- Generator: Sketch 61.2 (89653) - https://sketch.com -->
    <title>Icons / yelp</title>
    <desc>Created with Sketch.</desc>
    <g id="Page-1" stroke="none" stroke-width="1" fill="none" fill-rule="evenodd">
        <g id="HOME---Mobile" transform="translate(-66.000000, -2271.000000)" fill="#FFFFFF" fill-rule="nonzero">
            <g id="Footer-Group" transform="translate(0.000000, 2115.000000)">
                <g id="social-media-icons" transform="translate(24.000000, 156.000000)">
                    <g id="Icons-/-yelp" transform="translate(42.000000, 0.000000)">
                        <g id="yelp-brands" fill="none" transform="translate(0.000000, 0.000000)">
                            <path d="M1.54755309,9.36920078 L5.22696214,11.2643275 C5.93610342,11.6307992 5.82530009,12.7267057 5.06075716,12.9294347 L1.08956602,13.9746589 C0.853711634,14.0372617 0.603732626,13.9891277 0.40401027,13.8426536 C0.204287914,13.6961795 0.074344099,13.4656825 0.0476454294,13.2105263 C-0.074207206,12.0894406 0.0392826957,10.953785 0.380055402,9.88421053 C0.457393818,9.64186953 0.629863125,9.44642605 0.853391473,9.34782262 C1.07691982,9.24921919 1.32985126,9.25700874 1.54755309,9.36920078 L1.54755309,9.36920078 Z M3.17266851,18.6966862 C4.05300574,19.3333087 5.05386624,19.7604436 6.10600185,19.948538 C6.34554977,19.9919321 6.59117213,19.9238606 6.77962886,19.7618498 C6.96808559,19.599839 7.08096227,19.3597192 7.08919668,19.1033138 L7.233241,14.782846 C7.25909511,13.9524366 6.29141274,13.5387914 5.76288089,14.1551657 L3.02197599,17.3676413 C2.85959841,17.5583491 2.78306723,17.8137345 2.81200396,18.0683204 C2.84094069,18.3229062 2.97253133,18.5519347 3.17303786,18.6966862 L3.17266851,18.6966862 Z M8.54072022,14.411306 L10.7128347,18.0760234 C10.8423563,18.2936995 11.0543796,18.4419908 11.2947752,18.4830387 C11.5351709,18.5240867 11.7806731,18.4539186 11.9686057,18.2904483 C12.7918087,17.572122 13.4562629,16.6724916 13.9154201,15.6545809 C14.0177589,15.4227717 14.0214563,15.1558669 13.9255821,14.9209984 C13.829708,14.68613 13.6433864,14.5056494 13.4134811,14.4249513 L9.51985226,13.0892788 C8.76971376,12.8358674 8.12336103,13.7052632 8.54072022,14.411306 Z M14.0192059,9.25614035 C13.5935028,8.22239449 12.9579092,7.29995094 12.1573407,6.5539961 C11.9751236,6.38542049 11.7330552,6.30764486 11.4927612,6.34046932 C11.2524673,6.37329379 11.0371299,6.51355166 10.9015697,6.72553606 L8.61163435,10.3091618 C8.1721145,10.9992203 8.78522622,11.8923977 9.54238227,11.6623782 L13.4810711,10.4729045 C13.7145875,10.4003632 13.9074036,10.2255676 14.0106048,9.99286054 C14.1138061,9.76015346 14.1174759,9.49189583 14.0206833,9.25614035 L14.0192059,9.25614035 Z M2.25706371,1.17660819 C2.04556957,1.28405226 1.88599122,1.47957575 1.81662048,1.71626157 C1.74724973,1.95294739 1.77434795,2.20943244 1.89141274,2.42417154 L5.73702678,9.4588694 C6.16915974,10.2463938 7.3108373,9.92280702 7.3108373,9.01442495 L7.3108373,0.892007797 C7.31291979,0.643823261 7.21607685,0.406136404 7.04394912,0.23705311 C6.87182139,0.0679698159 6.64027311,-0.0169262634 6.40590951,0.00311890838 C4.96671967,0.123841134 3.56060982,0.52155532 2.25706371,1.17660819 Z" id="Shape" fill="#FFFFFF"></path>
                        </g>
                    </g>
                </g>
            </g>
        </g>
    </g>
</svg>
