<?xml version="1.0" encoding="UTF-8"?>
<svg width="60px" height="100px" viewBox="0 0 60 100" version="1.1" xmlns="http://www.w3.org/2000/svg" xmlns:xlink="http://www.w3.org/1999/xlink">
    <!-- Generator: Sketch 61.2 (89653) - https://sketch.com -->
    <title>Icons / ice glass</title>
    <desc>Created with Sketch.</desc>
    <g id="Page-1" stroke="none" stroke-width="1" fill="none" fill-rule="evenodd">
        <g id="OUR-MENU---Desktop" transform="translate(-582.000000, -1279.000000)">
            <g id="Content" transform="translate(36.000000, 339.000000)">
                <g id="Customize" transform="translate(546.000000, 670.000000)">
                    <g id="Section---Ice" transform="translate(0.000000, 189.000000)">
                        <g id="Group-3" transform="translate(0.000000, 79.000000)">
                            <g id="Icons-/-ice-glass" transform="translate(0.000000, 2.000000)">
                                <path d="M21.1843181,84.264755 C19.7340205,83.69833 18.0991439,84.4148503 17.5309336,85.8696865 L17.2162737,86.6639019 L16.5896857,86.7089539 C15.0281048,86.8212321 13.8089888,88.1256856 13.8089888,89.701104 L13.8089888,91.7746479 C13.8089888,93.4315021 15.1521345,94.7746479 16.8089888,94.7746479 L17.2461238,94.7746479 C18.5304012,94.7746479 19.6598465,93.9601589 20.077718,92.7684455 L20.268252,92.225068 L20.8338502,92.1170824 C21.7815222,91.9361503 22.5773406,91.2871447 22.9346164,90.3723611 L23.6383184,88.5705738 C24.1840306,87.1733099 23.6138165,85.587727 22.3032022,84.8580431 L21.5300715,84.427603 C21.4186367,84.3655617 21.3031202,84.3111541 21.1843181,84.264755 Z" id="Combined-Shape" stroke="#000000" stroke-width="2"></path>
                                <path d="M33.7684944,66.552827 C32.3625858,66.0096713 30.7825571,66.7090707 30.2376507,68.1194785 L29.917042,68.9375734 L29.3006254,68.9925468 C27.7621371,69.1297526 26.5717265,70.4243558 26.5717265,71.9805256 L26.5717265,73.981359 C26.5717265,75.6382133 27.9148723,76.981359 29.5717265,76.981359 L29.8574587,76.981359 C31.135079,76.981359 32.260245,76.1752383 32.6841499,74.9919513 L32.877548,74.4521005 L33.441161,74.3463557 C34.3655476,74.1729226 35.1419432,73.5394652 35.4869403,72.6464721 L36.1883216,70.8310111 C36.725499,69.4405767 36.1603242,67.8666254 34.8613435,67.1355191 L34.1235415,66.7202614 C34.0093652,66.6559994 33.8907092,66.6000432 33.7684944,66.552827 Z" id="Combined-Shape" stroke="#000000" stroke-width="2" transform="translate(31.616780, 71.435939) rotate(219.000000) translate(-31.616780, -71.435939) "></path>
                                <path d="M19.5970628,69.8206404 C18.1911543,69.2774848 16.6111256,69.9768842 16.0662192,71.387292 L15.7456105,72.2053869 L15.1291939,72.2603603 C13.5907056,72.397566 12.400295,73.6921693 12.400295,75.2483391 L12.400295,77.2491725 C12.400295,78.9060267 13.7434408,80.2491725 15.400295,80.2491725 L15.6860272,80.2491725 C16.9636475,80.2491725 18.0888135,79.4430517 18.5127184,78.2597648 L18.7061165,77.719914 L19.2697295,77.6141691 C20.1941161,77.4407361 20.9705117,76.8072786 21.3155088,75.9142855 L22.01689,74.0988245 C22.5540675,72.7083901 21.9888927,71.1344389 20.689912,70.4033325 L19.95211,69.9880748 C19.8379337,69.9238129 19.7192777,69.8678567 19.5970628,69.8206404 Z" id="Combined-Shape" stroke="#000000" stroke-width="2" transform="translate(17.445348, 74.703753) rotate(38.000000) translate(-17.445348, -74.703753) "></path>
                                <path d="M35.5182395,36.8120952 C34.112331,36.2689395 32.5323023,36.9683389 31.9873959,38.3787467 L31.6667871,39.1968416 L31.0503706,39.251815 C29.5118822,39.3890207 28.3214717,40.683624 28.3214717,42.2397938 L28.3214717,44.2406272 C28.3214717,45.8974815 29.6646174,47.2406272 31.3214717,47.2406272 L31.6072039,47.2406272 C32.8848242,47.2406272 34.0099901,46.4345064 34.4338951,45.2512195 L34.6272931,44.7113687 L35.1909062,44.6056238 C36.1152927,44.4321908 36.8916884,43.7987333 37.2366854,42.9057403 L37.9380667,41.0902792 C38.4752441,39.6998448 37.9100694,38.1258936 36.6110886,37.3947872 L35.8732867,36.9795296 C35.7591103,36.9152676 35.6404544,36.8593114 35.5182395,36.8120952 Z" id="Combined-Shape" stroke="#000000" stroke-width="2" transform="translate(33.366525, 41.695208) rotate(93.000000) translate(-33.366525, -41.695208) "></path>
                                <path d="M46.8259605,73.1253384 C46.0546993,72.9564397 45.2669356,73.1212994 44.6339291,73.5660193 L44.2907742,73.8071034 L43.8783058,73.7312967 C43.6995055,73.6984353 43.516773,73.6817431 43.331405,73.6817431 L43.1011236,73.6817431 C41.4442693,73.6817431 40.1011236,75.0248889 40.1011236,76.6817431 L40.1011236,78.7520452 C40.1011236,80.4088995 41.4442693,81.7520452 43.1011236,81.7520452 L43.331405,81.7520452 C43.9425402,81.7520452 44.5239059,81.5700019 45.0172635,81.2340262 L45.3837346,80.98446 L45.8147389,81.0884772 L45.8615819,81.1000137 C47.3612504,81.4284264 48.843203,80.478936 49.1716156,78.9792675 L49.6337447,76.8689943 C49.963069,75.3651631 49.1006598,73.8561332 47.6378051,73.3765307 L47.0973102,73.1993274 C47.0081668,73.1701013 46.917601,73.1454068 46.8259605,73.1253384 Z" id="Combined-Shape" stroke="#000000" stroke-width="2"></path>
                                <path d="M34.0169718,51.9985778 C33.2457105,51.8296792 32.4579468,51.9945389 31.8249404,52.4392587 L31.4817855,52.6803428 L31.0693171,52.6045361 C30.8905167,52.5716747 30.7077842,52.5549826 30.5224163,52.5549826 L30.2921348,52.5549826 C28.6352806,52.5549826 27.2921348,53.8981283 27.2921348,55.5549826 L27.2921348,57.6252847 C27.2921348,59.2821389 28.6352806,60.6252847 30.2921348,60.6252847 L30.5224163,60.6252847 C31.1335514,60.6252847 31.7149171,60.4432413 32.2082747,60.1072656 L32.5747458,59.8576994 L33.0057502,59.9617166 L33.0525932,59.9732532 C34.5522617,60.3016658 36.0342142,59.3521754 36.3626269,57.8525069 L36.824756,55.7422337 C37.1540802,54.2384025 36.2916711,52.7293727 34.8288163,52.2497701 L34.2883215,52.0725668 C34.199178,52.0433408 34.1086122,52.0186462 34.0169718,51.9985778 Z" id="Combined-Shape" stroke="#000000" stroke-width="2"></path>
                                <path d="M31.637784,83.6229223 C31.4635918,83.6065848 31.2882528,83.6065848 31.1140606,83.6229223 C29.5720852,83.7675446 28.4393066,85.1348021 28.5839288,86.6767775 L28.7032399,87.9488828 C28.8378702,89.3843237 29.9745492,90.5210028 31.4099902,90.6556331 L32.6820954,90.7749441 C32.8562877,90.7912817 33.0316266,90.7912817 33.2058189,90.7749441 C34.7477943,90.6303219 35.8805729,89.2630644 35.7359506,87.721089 L35.6166396,86.4489837 C35.4820093,85.0135427 34.3453302,83.8768637 32.9098893,83.7422334 L31.637784,83.6229223 Z" id="Rectangle" stroke="#000000" stroke-width="2" transform="translate(32.159940, 87.198933) rotate(45.000000) translate(-32.159940, -87.198933) "></path>
                                <path d="M44.8753646,54.8179465 C44.7865748,54.8134146 44.6976207,54.8130742 44.6087989,54.8169266 C43.0491752,54.884571 41.839687,56.2037323 41.9073314,57.7633559 L42.0819195,61.7887012 C42.1489696,63.3346231 43.3808145,64.5759298 44.9261782,64.6548066 L45.491844,64.6836787 C45.5806338,64.6882106 45.6695879,64.6885509 45.7584097,64.6846985 C47.3180334,64.6170542 48.5275215,63.2978928 48.4598772,61.7382692 L48.2852891,57.712924 C48.218239,56.167002 46.9863941,54.9256953 45.4410304,54.8468186 L44.8753646,54.8179465 Z" id="Rectangle" stroke="#000000" stroke-width="2" transform="translate(45.183604, 59.750813) rotate(15.000000) translate(-45.183604, -59.750813) "></path>
                                <path d="M16.3625959,51.381172 C16.2738061,51.3766401 16.184852,51.3762998 16.0960302,51.3801522 C14.5364065,51.4477965 13.3269184,52.7669579 13.3945627,54.3265815 L13.4833958,56.374738 C13.5504458,57.92066 14.7822907,59.1619667 16.3276544,59.2408434 L16.8933203,59.2697155 C16.98211,59.2742474 17.0710641,59.2745878 17.159886,59.2707354 C18.7195096,59.203091 19.9289978,57.8839297 19.8613534,56.3243061 L19.7725204,54.2761495 C19.7054703,52.7302276 18.4736254,51.4889209 16.9282617,51.4100441 L16.3625959,51.381172 Z" id="Rectangle" stroke="#000000" stroke-width="2" transform="translate(16.627958, 55.325444) rotate(15.000000) translate(-16.627958, -55.325444) "></path>
                                <path d="M20.2488057,34.193248 L18.5534,33.9789496 C18.2165131,33.9363673 17.8728963,33.9538857 17.5336045,34.0334134 L17.1043915,34.1340179 C15.5710021,34.4934338 14.5766061,35.9774097 14.8272491,37.5322861 L15.1484224,39.5246999 C15.1591998,39.5915582 15.172328,39.6580163 15.1877825,39.7239507 C15.551396,41.2752485 17.1037383,42.2380569 18.6550361,41.8744435 L19.0842492,41.7738389 C20.6176385,41.4144231 21.6120346,39.9304472 21.3613915,38.3755707 L21.0402183,36.3831569 C21.0294409,36.3162986 21.0163127,36.2498405 21.0008581,36.1839062 C20.9697372,36.0511341 20.9303927,35.924428 20.8832776,35.8047592 L20.2488057,34.193248 Z M20.1812082,33.9507761 L22.0796542,34.4744159 C22.1254042,34.4870349 22.1714669,34.4984976 22.2177985,34.5087928 C23.7384217,34.8466877 25.2450483,33.8878969 25.5829432,32.3672737 L26.0229488,30.3871227 C26.358721,28.8760524 25.4896941,27.3576017 24.0167454,26.8816832 L23.4877657,26.7107667 C23.4037788,26.6836301 23.3185645,26.6604507 23.232404,26.6413052 C21.7117808,26.3034103 20.2051542,27.2622011 19.8672593,28.7828243 L19.4272536,30.7629753 C19.2891918,31.3842929 19.3516199,32.0194664 19.5976218,32.5921671 L20.1812082,33.9507761 Z M11.4900667,27.2395927 C9.96944345,26.9016978 8.46281686,27.8604886 8.124922,29.3811118 L7.68491633,31.3612628 C7.34914421,32.8723331 8.21817106,34.3907838 9.69111979,34.8667023 L10.2200995,35.0376188 C10.3040863,35.0647554 10.3893007,35.0879348 10.4754612,35.1070804 C11.9960844,35.4449752 13.502711,34.4861845 13.8406059,32.9655612 L14.2806115,30.9854102 C14.6163837,29.4743399 13.7473568,27.9558892 12.2744081,27.4799708 L11.7454284,27.3090543 C11.6614415,27.2819176 11.5762272,27.2587383 11.4900667,27.2395927 Z" id="Combined-Shape" stroke="#000000" stroke-width="2"></path>
                                <path d="M43.8443113,25.0383184 L42.1489056,24.82402 C41.8120188,24.7814377 41.4684019,24.7989562 41.1291101,24.8784838 L40.6998971,24.9790884 C39.1665078,25.3385042 38.1721117,26.8224801 38.4227548,28.3773565 L38.743928,30.3697704 C38.7547054,30.4366286 38.7678336,30.5030867 38.7832882,30.5690211 C39.1469016,32.1203189 40.6992439,33.0831273 42.2505418,32.7195139 L42.6797548,32.6189093 C44.2131441,32.2594935 45.2075402,30.7755176 44.9568971,29.2206412 L44.6357239,27.2282273 C44.6249465,27.1613691 44.6118183,27.094911 44.5963637,27.0289766 C44.5652429,26.8962045 44.5258983,26.7694984 44.4787833,26.6498296 L43.8443113,25.0383184 Z M43.7767138,24.7958465 L45.6751599,25.3194863 C45.7209098,25.3321053 45.7669725,25.343568 45.8133041,25.3538633 C47.3339273,25.6917581 48.8405539,24.7329674 49.1784488,23.2123441 L49.6184545,21.2321931 C49.9542266,19.7211228 49.0851997,18.2026721 47.612251,17.7267537 L47.0832713,17.5558372 C46.9992844,17.5287005 46.9140701,17.5055212 46.8279096,17.4863756 C45.3072864,17.1484807 43.8006598,18.1072715 43.4627649,19.6278947 L43.0227593,21.6080457 C42.8846974,22.2293633 42.9471255,22.8645368 43.1931274,23.4372376 L43.7767138,24.7958465 Z M35.0855723,18.0846631 C33.5649491,17.7467683 32.0583225,18.705559 31.7204276,20.2261823 L31.2804219,22.2063333 C30.9446498,23.7174036 31.8136767,25.2358542 33.2866254,25.7117727 L33.8156051,25.8826892 C33.899592,25.9098259 33.9848063,25.9330052 34.0709668,25.9521508 C35.59159,26.2900457 37.0982166,25.3312549 37.4361115,23.8106316 L37.8761171,21.8304807 C38.2118893,20.3194103 37.3428624,18.8009597 35.8699137,18.3250412 L35.340934,18.1541247 C35.2569471,18.126988 35.1717328,18.1038087 35.0855723,18.0846631 Z" id="Combined-Shape" stroke="#000000" stroke-width="2" transform="translate(40.449438, 25.072217) scale(-1, 1) translate(-40.449438, -25.072217) "></path>
                                <path d="M48.3030903,37.9883913 C46.7297227,38.0489357 45.470881,39.3155425 45.4200131,40.8892526 L45.3541096,42.9281221 C45.3519056,42.9963087 45.3521154,43.064552 45.3547387,43.1327238 C45.416145,44.7284908 46.7595495,45.9723359 48.3553165,45.9109296 L48.8056914,45.8935988 C50.3790589,45.8330544 51.6379006,44.5664476 51.6887685,42.9927376 L51.754672,40.9538681 C51.756876,40.8856815 51.7566662,40.8174382 51.7540429,40.7492664 C51.6926366,39.1534994 50.3492322,37.9096543 48.7534652,37.9710606 L48.3030903,37.9883913 Z" id="Rectangle" stroke="#000000" stroke-width="2" transform="translate(48.554391, 41.940995) rotate(-11.000000) translate(-48.554391, -41.940995) "></path>
                                <path d="M16.617697,13.340504 C15.0443295,13.4010484 13.7854878,14.6676552 13.7346199,16.2413653 L13.6687164,18.2802347 C13.6665123,18.3484214 13.6667222,18.4166647 13.6693455,18.4848365 C13.7307518,20.0806035 15.0741562,21.3244486 16.6699232,21.2630423 L17.1202981,21.2457115 C18.6936656,21.1851671 19.9525073,19.9185603 20.0033752,18.3448502 L20.0692787,16.3059808 C20.0714828,16.2377941 20.0712729,16.1695508 20.0686496,16.101379 C20.0072433,14.505612 18.6638389,13.2617669 17.0680719,13.3231733 L16.617697,13.340504 Z" id="Rectangle" stroke="#000000" stroke-width="2" transform="translate(16.868998, 17.293108) rotate(-11.000000) translate(-16.868998, -17.293108) "></path>
                                <rect id="Rectangle" stroke="#000000" stroke-width="2" x="41.4494382" y="86.915493" width="6.08988764" height="7.85915493" rx="3.04494382"></rect>
                                <path d="M18.0569844,98.5 L42.6171729,98.5 C47.0198422,98.5 50.6938346,95.1381936 51.0837692,90.7528261 L58.1971459,10.7528261 C58.2194041,10.5025013 58.2305496,10.2513125 58.2305496,10 C58.2305496,5.30557963 54.42497,1.5 49.7305496,1.5 L10.9436077,1.5 C6.24918729,1.5 2.44360766,5.30557963 2.44360766,10 C2.44360766,10.2513125 2.45475318,10.5025013 2.47701137,10.7528261 L9.5903881,90.7528261 C9.98032273,95.1381936 13.6543151,98.5 18.0569844,98.5 Z" id="Combined-Shape" stroke="#2B2A27" stroke-width="3"></path>
                            </g>
                        </g>
                    </g>
                </g>
            </g>
        </g>
    </g>
</svg>