<?xml version="1.0" encoding="UTF-8"?>
<svg width="60px" height="100px" viewBox="0 0 60 100" version="1.1" xmlns="http://www.w3.org/2000/svg" xmlns:xlink="http://www.w3.org/1999/xlink">
    <!-- Generator: Sketch 61.2 (89653) - https://sketch.com -->
    <title>Icons / ice glass</title>
    <desc>Created with Sketch.</desc>
    <g id="Page-1" stroke="none" stroke-width="1" fill="none" fill-rule="evenodd">
        <g id="OUR-MENU---Desktop" transform="translate(-894.000000, -1277.000000)" stroke="#2B2A27" stroke-width="3">
            <g id="Content" transform="translate(36.000000, 339.000000)">
                <g id="Customize" transform="translate(546.000000, 670.000000)">
                    <g id="Section---Ice" transform="translate(0.000000, 189.000000)">
                        <g id="Group-3" transform="translate(0.000000, 79.000000)">
                            <g id="Icons-/-ice-glass" transform="translate(312.000000, 0.000000)">
                                <path d="M18.0569844,98.5 L42.6171729,98.5 C47.0198422,98.5 50.6938346,95.1381936 51.0837692,90.7528261 L58.1971459,10.7528261 C58.2194041,10.5025013 58.2305496,10.2513125 58.2305496,10 C58.2305496,5.30557963 54.42497,1.5 49.7305496,1.5 L10.9436077,1.5 C6.24918729,1.5 2.44360766,5.30557963 2.44360766,10 C2.44360766,10.2513125 2.45475318,10.5025013 2.47701137,10.7528261 L9.5903881,90.7528261 C9.98032273,95.1381936 13.6543151,98.5 18.0569844,98.5 Z" id="Combined-Shape"></path>
                            </g>
                        </g>
                    </g>
                </g>
            </g>
        </g>
    </g>
</svg>