<?xml version="1.0" encoding="UTF-8"?>
<svg width="60px" height="100px" viewBox="0 0 60 100" version="1.1" xmlns="http://www.w3.org/2000/svg" xmlns:xlink="http://www.w3.org/1999/xlink">
    <!-- Generator: Sketch 61.2 (89653) - https://sketch.com -->
    <title>Icons / ice glass</title>
    <desc>Created with Sketch.</desc>
    <g id="Page-1" stroke="none" stroke-width="1" fill="none" fill-rule="evenodd">
        <g id="OUR-MENU---Desktop" transform="translate(-816.000000, -1277.000000)">
            <g id="Content" transform="translate(36.000000, 339.000000)">
                <g id="Customize" transform="translate(546.000000, 670.000000)">
                    <g id="Section---Ice" transform="translate(0.000000, 189.000000)">
                        <g id="Group-3" transform="translate(0.000000, 79.000000)">
                            <g id="Icons-/-ice-glass" transform="translate(234.000000, 0.000000)">
                                <path d="M21.1843181,84.264755 C19.7340205,83.69833 18.0991439,84.4148503 17.5309336,85.8696865 L17.2162737,86.6639019 L16.5896857,86.7089539 C15.0281048,86.8212321 13.8089888,88.1256856 13.8089888,89.701104 L13.8089888,91.7746479 C13.8089888,93.4315021 15.1521345,94.7746479 16.8089888,94.7746479 L17.2461238,94.7746479 C18.5304012,94.7746479 19.6598465,93.9601589 20.077718,92.7684455 L20.268252,92.225068 L20.8338502,92.1170824 C21.7815222,91.9361503 22.5773406,91.2871447 22.9346164,90.3723611 L23.6383184,88.5705738 C24.1840306,87.1733099 23.6138165,85.587727 22.3032022,84.8580431 L21.5300715,84.427603 C21.4186367,84.3655617 21.3031202,84.3111541 21.1843181,84.264755 Z" id="Combined-Shape" stroke="#000000" stroke-width="2"></path>
                                <path d="M19.5970628,69.8206404 C18.1911543,69.2774848 16.6111256,69.9768842 16.0662192,71.387292 L15.7456105,72.2053869 L15.1291939,72.2603603 C13.5907056,72.397566 12.400295,73.6921693 12.400295,75.2483391 L12.400295,77.2491725 C12.400295,78.9060267 13.7434408,80.2491725 15.400295,80.2491725 L15.6860272,80.2491725 C16.9636475,80.2491725 18.0888135,79.4430517 18.5127184,78.2597648 L18.7061165,77.719914 L19.2697295,77.6141691 C20.1941161,77.4407361 20.9705117,76.8072786 21.3155088,75.9142855 L22.01689,74.0988245 C22.5540675,72.7083901 21.9888927,71.1344389 20.689912,70.4033325 L19.95211,69.9880748 C19.8379337,69.9238129 19.7192777,69.8678567 19.5970628,69.8206404 Z" id="Combined-Shape" stroke="#000000" stroke-width="2" transform="translate(17.445348, 74.703753) rotate(38.000000) translate(-17.445348, -74.703753) "></path>
                                <path d="M46.8259605,73.1253384 C46.0546993,72.9564397 45.2669356,73.1212994 44.6339291,73.5660193 L44.2907742,73.8071034 L43.8783058,73.7312967 C43.6995055,73.6984353 43.516773,73.6817431 43.331405,73.6817431 L43.1011236,73.6817431 C41.4442693,73.6817431 40.1011236,75.0248889 40.1011236,76.6817431 L40.1011236,78.7520452 C40.1011236,80.4088995 41.4442693,81.7520452 43.1011236,81.7520452 L43.331405,81.7520452 C43.9425402,81.7520452 44.5239059,81.5700019 45.0172635,81.2340262 L45.3837346,80.98446 L45.8147389,81.0884772 L45.8615819,81.1000137 C47.3612504,81.4284264 48.843203,80.478936 49.1716156,78.9792675 L49.6337447,76.8689943 C49.963069,75.3651631 49.1006598,73.8561332 47.6378051,73.3765307 L47.0973102,73.1993274 C47.0081668,73.1701013 46.917601,73.1454068 46.8259605,73.1253384 Z" id="Combined-Shape" stroke="#000000" stroke-width="2"></path>
                                <path d="M31.637784,83.6229223 C31.4635918,83.6065848 31.2882528,83.6065848 31.1140606,83.6229223 C29.5720852,83.7675446 28.4393066,85.1348021 28.5839288,86.6767775 L28.7032399,87.9488828 C28.8378702,89.3843237 29.9745492,90.5210028 31.4099902,90.6556331 L32.6820954,90.7749441 C32.8562877,90.7912817 33.0316266,90.7912817 33.2058189,90.7749441 C34.7477943,90.6303219 35.8805729,89.2630644 35.7359506,87.721089 L35.6166396,86.4489837 C35.4820093,85.0135427 34.3453302,83.8768637 32.9098893,83.7422334 L31.637784,83.6229223 Z" id="Rectangle" stroke="#000000" stroke-width="2" transform="translate(32.159940, 87.198933) rotate(45.000000) translate(-32.159940, -87.198933) "></path>
                                <rect id="Rectangle" stroke="#000000" stroke-width="2" x="41.4494382" y="86.915493" width="6.08988764" height="7.85915493" rx="3.04494382"></rect>
                                <path d="M18.0569844,98.5 L42.6171729,98.5 C47.0198422,98.5 50.6938346,95.1381936 51.0837692,90.7528261 L58.1971459,10.7528261 C58.2194041,10.5025013 58.2305496,10.2513125 58.2305496,10 C58.2305496,5.30557963 54.42497,1.5 49.7305496,1.5 L10.9436077,1.5 C6.24918729,1.5 2.44360766,5.30557963 2.44360766,10 C2.44360766,10.2513125 2.45475318,10.5025013 2.47701137,10.7528261 L9.5903881,90.7528261 C9.98032273,95.1381936 13.6543151,98.5 18.0569844,98.5 Z" id="Combined-Shape" stroke="#2B2A27" stroke-width="3"></path>
                            </g>
                        </g>
                    </g>
                </g>
            </g>
        </g>
    </g>
</svg>